<svg xmlns="http://www.w3.org/2000/svg" width="32" height="32" viewBox="0 0 32 32" fill="none">
  <rect width="32" height="32" rx="8" fill="#1e293b"/>
  <rect x="1" y="1" width="30" height="30" rx="7" stroke="#3b82f6" stroke-opacity="0.3" stroke-width="1"/>
  <g transform="translate(6, 6)">
    <path d="M2 3C2 2.44772 2.44772 2 3 2H9L10 3V17L9 16H3C2.44772 16 2 15.5523 2 15V3Z" fill="#3b82f6" fill-opacity="0.2" stroke="#3b82f6" stroke-width="1.5" stroke-linecap="round" stroke-linejoin="round"/>
    <path d="M18 3C18 2.44772 17.5523 2 17 2H11L10 3V17L11 16H17C17.5523 16 18 15.5523 18 15V3Z" fill="#3b82f6" fill-opacity="0.2" stroke="#3b82f6" stroke-width="1.5" stroke-linecap="round" stroke-linejoin="round"/>
    <line x1="5" y1="6" x2="8" y2="6" stroke="#60a5fa" stroke-width="1.2" stroke-linecap="round"/>
    <line x1="5" y1="9" x2="7.5" y2="9" stroke="#60a5fa" stroke-width="1.2" stroke-linecap="round"/>
    <line x1="12" y1="6" x2="15" y2="6" stroke="#60a5fa" stroke-width="1.2" stroke-linecap="round"/>
    <line x1="12" y1="9" x2="14.5" y2="9" stroke="#60a5fa" stroke-width="1.2" stroke-linecap="round"/>
  </g>
</svg>
